# xmcd CD database file
#
# Track frame offsets:
#	150
#	24832
#	42842
#	59795
#	78277
#	97570
#	115442
#	130960
#	157790
#	176835
#	192392
#	215992
#	236917
#	252092
#
# Disc length: 3610 seconds
#
# Revision: 0
# Processed by: cddbd v1.5.1PL0 Copyright (c) Steve Scherf et al.
# Submitted via: CDex 1.51
#
DISCID=be0e180e
DTITLE=NEW ROTE'KA - DIVE INTO FEEDBACK
DYEAR=2005
DGENRE=Rock
TTITLE0=七つの海を乗り越えて
TTITLE1=ダイナマイトでぶっとばせ！
TTITLE2=太陽をさがして
TTITLE3=よろしく哀愁パート?
TTITLE4=冬の空
TTITLE5=チャンスを獲りにいけ
TTITLE6=気まぐれ天使
TTITLE7=サルピンチ
TTITLE8=そんなのロックじゃねえ
TTITLE9=追いかけてロックンロール
TTITLE10=パンチョによろしく
TTITLE11=北へ向かえ
TTITLE12=今日からあしたへ
TTITLE13=ROCKで駆け抜けろ
EXTD=YEAR: 2005
EXTT0=
EXTT1=
EXTT2=
EXTT3=
EXTT4=
EXTT5=
EXTT6=
EXTT7=
EXTT8=
EXTT9=
EXTT10=
EXTT11=
EXTT12=
EXTT13=
PLAYORDER=
